<?xml version="1.0" encoding="utf-8"?>
<!-- Generator: Adobe Illustrator 24.2.0, SVG Export Plug-In . SVG Version: 6.00 Build 0)  -->
<svg version="1.1" id="Layer_1" xmlns="http://www.w3.org/2000/svg" xmlns:xlink="http://www.w3.org/1999/xlink" x="0px" y="0px"
	 viewBox="0 0 562.4 562.4" style="enable-background:new 0 0 562.4 562.4;" xml:space="preserve">
<style type="text/css">
	.st0{fill:#09CC66;}
</style>
<g id="Layer_2_1_">
	<g id="Layer_1-2">
		<path class="st0" d="M319.5,409.5h27.3v49.8H223.5v-49.8h27V263.9c-2.7-0.4-5.4-0.5-8-1.1c-13.4-3.2-21.7-16.7-18.5-30.2
			c2.3-9.5,9.8-16.7,19.4-18.7c1.9-0.3,3.8-0.5,5.7-0.4c22.7,0,45.3,0,67.9,0c0.7,0,1.5,0.1,2.4,0.2V409.5z"/>
		<path class="st0" d="M281.1,102.9c23.2-0.1,42.1,18.6,42.2,41.8c0,0.1,0,0.1,0,0.2c0,22.8-17.8,41.8-42,42.2
			c-22.9,0.4-42-18.8-42.2-42S257.9,103,281.1,102.9z"/>
		<path class="st0" d="M281.2,562.4C125.9,562.4,0,436.5,0,281.2c0-74.6,29.6-146.1,82.4-198.8C191.3-28.3,369.3-29.8,480,79.1
			s112.2,286.9,3.3,397.6c-1.1,1.1-2.2,2.2-3.3,3.3C427.4,532.9,355.8,562.6,281.2,562.4z M281.2,40C148,40,40,148,40,281.2
			c0,64,25.4,125.3,70.6,170.5c94.7,93.7,247.4,93,341.1-1.7c93.1-94,93.1-245.4,0-339.4C406.6,65.3,345.2,39.8,281.2,40z"/>
	</g>
</g>
</svg>
