<svg xmlns="http://www.w3.org/2000/svg" viewBox="0 0 211.15 218.26"><defs><style>.cls-1{fill:#1d1d1b;}</style></defs><g id="Layer_2" data-name="Layer 2"><g id="Layer_1-2" data-name="Layer 1"><path class="cls-1" d="M86.5,218.26c-18.93-.8-37.78-5.06-54.32-16.67-16.07-11.28-26-26.81-30-46C-4,126,3.51,98.73,17.5,73c14.11-25.9,34-46.76,59.6-61.63C84.37,7.18,92.25,4,100,.66c2.13-.9,4.86-.68,7.28-.49a3.52,3.52,0,0,1,3.41,4.36,17.7,17.7,0,0,1-2.1,6.17C98,28.16,90.87,46.89,88.47,67.22c-1.73,14.63-1.1,29.17,5.14,42.89a54.63,54.63,0,0,0,24.52,25.94c17.21,9.28,35.88,11.27,54.91,9.77,9.66-.75,19.17-3.31,28.75-5.06,2.76-.5,5.7-1.76,8,1s1.53,6-.17,8.4c-5.12,7.35-10,15-16.07,21.54-17.94,19.5-40.06,32.65-65.28,40.5C115,216.32,101.29,218,86.5,218.26Z"/></g></g></svg>